<svg width="640" height="640" viewBox="0 0 640 640" fill="none" xmlns="http://www.w3.org/2000/svg">
  <defs>
    <linearGradient id="grad1" x1="0" y1="0" x2="640" y2="640" gradientUnits="userSpaceOnUse">
      <stop offset="0%" stop-color="#34d399" stop-opacity="0.9" />
      <stop offset="50%" stop-color="#2dd4bf" stop-opacity="0.7" />
      <stop offset="100%" stop-color="#fde68a" stop-opacity="0.9" />
    </linearGradient>
    <linearGradient id="grad2" x1="120" y1="140" x2="520" y2="520" gradientUnits="userSpaceOnUse">
      <stop offset="0%" stop-color="#fef3c7" />
      <stop offset="100%" stop-color="#f472b6" />
    </linearGradient>
  </defs>
  <rect x="40" y="40" width="560" height="560" rx="80" fill="url(#grad1)" />
  <circle cx="460" cy="200" r="60" fill="#facc15" opacity="0.35" />
  <circle cx="220" cy="140" r="40" fill="#f97316" opacity="0.35" />
  <path d="M160 360C160 292 212 240 280 240H360C428 240 480 292 480 360V440C480 456.569 466.569 470 450 470H190C173.431 470 160 456.569 160 440V360Z" fill="#fff" opacity="0.9" />
  <path d="M220 330C220 306.804 238.804 288 262 288H378C401.196 288 420 306.804 420 330V358C420 374.569 406.569 388 390 388H250C233.431 388 220 374.569 220 358V330Z" fill="#f8fafc" />
  <rect x="250" y="388" width="140" height="52" rx="16" fill="url(#grad2)" />
  <circle cx="320" cy="280" r="26" fill="#f97316" opacity="0.6" />
  <path d="M284 250C292 236 308 232 320 240C332 248 348 248 360 240C372 232 388 236 396 250" stroke="#f97316" stroke-width="12" stroke-linecap="round" />
  <circle cx="230" cy="210" r="16" fill="#22d3ee" />
  <circle cx="470" cy="320" r="22" fill="#c084fc" />
</svg>
